name rise36.2859peak64.2979fall75.1499.mot
datacolumns 19
datarows 30
range 22.84661300000000 22.89490900000000
endheader
time	ground_force1_vx	ground_force1_vy	ground_force1_vz	ground_force1_px	ground_force1_py	ground_force1_pz	ground_force2_vx	ground_force2_vy	ground_force2_vz	ground_force2_px	ground_force2_py	ground_force2_pz	ground_torque1_x	ground_torque1_y	ground_torque1_z	ground_torque2_x	ground_torque2_y	ground_torque2_z	
22.84661300000000	59.35657600000000	775.65667900000005	70.39580800000000	0.38155800000000	0.00000000000000	0.14249400000000	0.00000000000000	0.00000000000000	0.00000000000000	0.00000000000000	0.00000000000000	0.00000000000000	0.00000000000000	35.76478200000000	0.00000000000000	0.00000000000000	0.00000000000000	0.00000000000000	
22.84824600000000	58.47515600000000	776.70147899999995	70.42815500000000	0.37996900000000	0.00000000000000	0.14260300000000	0.00000000000000	0.00000000000000	0.00000000000000	0.00000000000000	0.00000000000000	0.00000000000000	0.00000000000000	35.79445000000000	0.00000000000000	0.00000000000000	0.00000000000000	0.00000000000000	
22.84990900000000	57.59856800000000	777.66550400000006	70.46448300000000	0.37836900000000	0.00000000000000	0.14271600000000	0.00000000000000	0.00000000000000	0.00000000000000	0.00000000000000	0.00000000000000	0.00000000000000	0.00000000000000	35.82615600000000	0.00000000000000	0.00000000000000	0.00000000000000	0.00000000000000	
22.85160200000000	56.72781600000000	778.54873699999996	70.50465400000000	0.37675700000000	0.00000000000000	0.14283100000000	0.00000000000000	0.00000000000000	0.00000000000000	0.00000000000000	0.00000000000000	0.00000000000000	0.00000000000000	35.85971400000000	0.00000000000000	0.00000000000000	0.00000000000000	0.00000000000000	
22.85324600000000	55.86381000000000	779.35112400000003	70.54843600000000	0.37513400000000	0.00000000000000	0.14294900000000	0.00000000000000	0.00000000000000	0.00000000000000	0.00000000000000	0.00000000000000	0.00000000000000	0.00000000000000	35.89487900000000	0.00000000000000	0.00000000000000	0.00000000000000	0.00000000000000	
22.85491200000000	55.00736900000000	780.07257700000002	70.59550200000000	0.37350300000000	0.00000000000000	0.14306900000000	0.00000000000000	0.00000000000000	0.00000000000000	0.00000000000000	0.00000000000000	0.00000000000000	0.00000000000000	35.93135500000000	0.00000000000000	0.00000000000000	0.00000000000000	0.00000000000000	
22.85658600000000	54.15921700000000	780.71299599999998	70.64543999999999	0.37186400000000	0.00000000000000	0.14319200000000	0.00000000000000	0.00000000000000	0.00000000000000	0.00000000000000	0.00000000000000	0.00000000000000	0.00000000000000	35.96879800000000	0.00000000000000	0.00000000000000	0.00000000000000	0.00000000000000	
22.85824400000000	53.31999300000000	781.27227500000004	70.69775900000000	0.37021700000000	0.00000000000000	0.14331800000000	0.00000000000000	0.00000000000000	0.00000000000000	0.00000000000000	0.00000000000000	0.00000000000000	0.00000000000000	36.00682300000000	0.00000000000000	0.00000000000000	0.00000000000000	0.00000000000000	
22.85993600000000	52.49024500000000	781.75031700000000	70.75189399999999	0.36856500000000	0.00000000000000	0.14344500000000	0.00000000000000	0.00000000000000	0.00000000000000	0.00000000000000	0.00000000000000	0.00000000000000	0.00000000000000	36.04500400000000	0.00000000000000	0.00000000000000	0.00000000000000	0.00000000000000	
22.86160200000000	51.67043600000000	782.14704700000004	70.80721500000000	0.36690700000000	0.00000000000000	0.14357500000000	0.00000000000000	0.00000000000000	0.00000000000000	0.00000000000000	0.00000000000000	0.00000000000000	0.00000000000000	36.08288500000000	0.00000000000000	0.00000000000000	0.00000000000000	0.00000000000000	
22.86326500000000	50.86094800000000	782.46241699999996	70.86303700000001	0.36524600000000	0.00000000000000	0.14370600000000	0.00000000000000	0.00000000000000	0.00000000000000	0.00000000000000	0.00000000000000	0.00000000000000	0.00000000000000	36.11998300000000	0.00000000000000	0.00000000000000	0.00000000000000	0.00000000000000	
22.86491400000000	50.06208200000000	782.69642699999997	70.91861900000001	0.36358100000000	0.00000000000000	0.14383900000000	0.00000000000000	0.00000000000000	0.00000000000000	0.00000000000000	0.00000000000000	0.00000000000000	0.00000000000000	36.15579300000000	0.00000000000000	0.00000000000000	0.00000000000000	0.00000000000000	
22.86658600000000	49.27406600000000	782.84912699999995	70.97318400000000	0.36191300000000	0.00000000000000	0.14397300000000	0.00000000000000	0.00000000000000	0.00000000000000	0.00000000000000	0.00000000000000	0.00000000000000	0.00000000000000	36.18979300000000	0.00000000000000	0.00000000000000	0.00000000000000	0.00000000000000	
22.86824500000000	48.49705300000000	782.92062999999996	71.02591500000000	0.36024400000000	0.00000000000000	0.14410800000000	0.00000000000000	0.00000000000000	0.00000000000000	0.00000000000000	0.00000000000000	0.00000000000000	0.00000000000000	36.22145200000000	0.00000000000000	0.00000000000000	0.00000000000000	0.00000000000000	
22.86991600000000	47.73113000000000	782.91111999999998	71.07597199999999	0.35857400000000	0.00000000000000	0.14424500000000	0.00000000000000	0.00000000000000	0.00000000000000	0.00000000000000	0.00000000000000	0.00000000000000	0.00000000000000	36.25023200000000	0.00000000000000	0.00000000000000	0.00000000000000	0.00000000000000	
22.87159800000000	46.97632000000000	782.82086400000003	71.12249600000000	0.35690400000000	0.00000000000000	0.14438200000000	0.00000000000000	0.00000000000000	0.00000000000000	0.00000000000000	0.00000000000000	0.00000000000000	0.00000000000000	36.27559500000000	0.00000000000000	0.00000000000000	0.00000000000000	0.00000000000000	
22.87324900000000	46.23258400000000	782.65021400000001	71.16461600000000	0.35523500000000	0.00000000000000	0.14452000000000	0.00000000000000	0.00000000000000	0.00000000000000	0.00000000000000	0.00000000000000	0.00000000000000	0.00000000000000	36.29700800000000	0.00000000000000	0.00000000000000	0.00000000000000	0.00000000000000	
22.87491000000000	45.49983100000000	782.39961800000003	71.20145800000000	0.35356700000000	0.00000000000000	0.14465800000000	0.00000000000000	0.00000000000000	0.00000000000000	0.00000000000000	0.00000000000000	0.00000000000000	0.00000000000000	36.31394500000000	0.00000000000000	0.00000000000000	0.00000000000000	0.00000000000000	
22.87658600000000	44.77791800000000	782.06962499999997	71.23215500000001	0.35190200000000	0.00000000000000	0.14479700000000	0.00000000000000	0.00000000000000	0.00000000000000	0.00000000000000	0.00000000000000	0.00000000000000	0.00000000000000	36.32589500000000	0.00000000000000	0.00000000000000	0.00000000000000	0.00000000000000	
22.87824500000000	44.06665600000000	781.66089099999999	71.25585000000000	0.35024000000000	0.00000000000000	0.14493500000000	0.00000000000000	0.00000000000000	0.00000000000000	0.00000000000000	0.00000000000000	0.00000000000000	0.00000000000000	36.33236600000000	0.00000000000000	0.00000000000000	0.00000000000000	0.00000000000000	
22.87991500000000	43.36581600000000	781.17418199999997	71.27170400000000	0.34858100000000	0.00000000000000	0.14507400000000	0.00000000000000	0.00000000000000	0.00000000000000	0.00000000000000	0.00000000000000	0.00000000000000	0.00000000000000	36.33288700000000	0.00000000000000	0.00000000000000	0.00000000000000	0.00000000000000	
22.88158700000000	42.67513300000000	780.61037999999996	71.27890600000001	0.34692600000000	0.00000000000000	0.14521200000000	0.00000000000000	0.00000000000000	0.00000000000000	0.00000000000000	0.00000000000000	0.00000000000000	0.00000000000000	36.32701100000000	0.00000000000000	0.00000000000000	0.00000000000000	0.00000000000000	
22.88325000000000	41.99430800000000	779.97048299999994	71.27667500000000	0.34527700000000	0.00000000000000	0.14535000000000	0.00000000000000	0.00000000000000	0.00000000000000	0.00000000000000	0.00000000000000	0.00000000000000	0.00000000000000	36.31432100000000	0.00000000000000	0.00000000000000	0.00000000000000	0.00000000000000	
22.88490900000000	41.32301900000000	779.25561200000004	71.26426900000000	0.34363300000000	0.00000000000000	0.14548700000000	0.00000000000000	0.00000000000000	0.00000000000000	0.00000000000000	0.00000000000000	0.00000000000000	0.00000000000000	36.29443300000000	0.00000000000000	0.00000000000000	0.00000000000000	0.00000000000000	
22.88657800000000	40.66092100000000	778.46700499999997	71.24099099999999	0.34199600000000	0.00000000000000	0.14562300000000	0.00000000000000	0.00000000000000	0.00000000000000	0.00000000000000	0.00000000000000	0.00000000000000	0.00000000000000	36.26699400000000	0.00000000000000	0.00000000000000	0.00000000000000	0.00000000000000	
22.88824800000000	40.00765100000000	777.60602600000004	71.20619000000001	0.34036500000000	0.00000000000000	0.14575800000000	0.00000000000000	0.00000000000000	0.00000000000000	0.00000000000000	0.00000000000000	0.00000000000000	0.00000000000000	36.23169100000000	0.00000000000000	0.00000000000000	0.00000000000000	0.00000000000000	
22.88991500000000	39.36283400000000	776.67415900000003	71.15926899999999	0.33874200000000	0.00000000000000	0.14589200000000	0.00000000000000	0.00000000000000	0.00000000000000	0.00000000000000	0.00000000000000	0.00000000000000	0.00000000000000	36.18824900000000	0.00000000000000	0.00000000000000	0.00000000000000	0.00000000000000	
22.89158700000000	38.72608500000000	775.67300899999998	71.09969100000001	0.33712700000000	0.00000000000000	0.14602400000000	0.00000000000000	0.00000000000000	0.00000000000000	0.00000000000000	0.00000000000000	0.00000000000000	0.00000000000000	36.13643100000000	0.00000000000000	0.00000000000000	0.00000000000000	0.00000000000000	
22.89324700000000	38.09701800000000	774.60430199999996	71.02697700000000	0.33552100000000	0.00000000000000	0.14615500000000	0.00000000000000	0.00000000000000	0.00000000000000	0.00000000000000	0.00000000000000	0.00000000000000	0.00000000000000	36.07604400000000	0.00000000000000	0.00000000000000	0.00000000000000	0.00000000000000	
22.89490900000000	37.47524500000000	773.46987799999999	70.94071500000000	0.33392400000000	0.00000000000000	0.14628500000000	0.00000000000000	0.00000000000000	0.00000000000000	0.00000000000000	0.00000000000000	0.00000000000000	0.00000000000000	36.00693700000000	0.00000000000000	0.00000000000000	0.00000000000000	0.00000000000000	
